<svg width="16" height="15" viewBox="0 0 16 15" fill="none" xmlns="http://www.w3.org/2000/svg">
<path d="M8.7069 0.500062C8.51937 0.312591 8.26506 0.207275 7.9999 0.207275C7.73474 0.207275 7.48043 0.312591 7.2929 0.500062L0.645899 7.14606C0.599411 7.19255 0.562535 7.24774 0.537376 7.30848C0.512217 7.36922 0.499268 7.43432 0.499268 7.50006C0.499268 7.56581 0.512217 7.63091 0.537376 7.69165C0.562535 7.75239 0.599411 7.80757 0.645899 7.85406C0.739786 7.94795 0.867123 8.00069 0.999899 8.00069C1.06564 8.00069 1.13074 7.98774 1.19148 7.96259C1.25222 7.93743 1.30741 7.90055 1.3539 7.85406L1.9999 7.20706V12.5001C1.9999 12.8979 2.15793 13.2794 2.43924 13.5607C2.72054 13.842 3.10207 14.0001 3.4999 14.0001H7.4999C7.63251 14.0001 7.75968 13.9474 7.85345 13.8536C7.94722 13.7598 7.9999 13.6327 7.9999 13.5001C7.9999 13.3675 7.94722 13.2403 7.85345 13.1465C7.75968 13.0527 7.63251 13.0001 7.4999 13.0001H3.4999C3.36729 13.0001 3.24011 12.9474 3.14635 12.8536C3.05258 12.7598 2.9999 12.6327 2.9999 12.5001V6.20706L7.9999 1.20706L14.6459 7.85406C14.7398 7.94795 14.8671 8.00069 14.9999 8.00069C15.1327 8.00069 15.26 7.94795 15.3539 7.85406C15.4478 7.76018 15.5005 7.63284 15.5005 7.50006C15.5005 7.36729 15.4478 7.23995 15.3539 7.14606L12.9999 4.79306V1.50006C12.9999 1.36745 12.9472 1.24028 12.8535 1.14651C12.7597 1.05274 12.6325 1.00006 12.4999 1.00006H11.4999C11.3673 1.00006 11.2401 1.05274 11.1463 1.14651C11.0526 1.24028 10.9999 1.36745 10.9999 1.50006V2.79306L8.7069 0.500062Z" fill="#357AE1"/>
<path d="M16 11.5C16 12.4283 15.6313 13.3185 14.9749 13.9749C14.3185 14.6313 13.4283 15 12.5 15C11.5717 15 10.6815 14.6313 10.0251 13.9749C9.36875 13.3185 9 12.4283 9 11.5C9 10.5717 9.36875 9.6815 10.0251 9.02513C10.6815 8.36875 11.5717 8 12.5 8C13.4283 8 14.3185 8.36875 14.9749 9.02513C15.6313 9.6815 16 10.5717 16 11.5ZM12.5 9.5C12.3674 9.5 12.2402 9.55268 12.1464 9.64645C12.0527 9.74021 12 9.86739 12 10V11H11C10.8674 11 10.7402 11.0527 10.6464 11.1464C10.5527 11.2402 10.5 11.3674 10.5 11.5C10.5 11.6326 10.5527 11.7598 10.6464 11.8536C10.7402 11.9473 10.8674 12 11 12H12V13C12 13.1326 12.0527 13.2598 12.1464 13.3536C12.2402 13.4473 12.3674 13.5 12.5 13.5C12.6326 13.5 12.7598 13.4473 12.8536 13.3536C12.9473 13.2598 13 13.1326 13 13V12H14C14.1326 12 14.2598 11.9473 14.3536 11.8536C14.4473 11.7598 14.5 11.6326 14.5 11.5C14.5 11.3674 14.4473 11.2402 14.3536 11.1464C14.2598 11.0527 14.1326 11 14 11H13V10C13 9.86739 12.9473 9.74021 12.8536 9.64645C12.7598 9.55268 12.6326 9.5 12.5 9.5Z" fill="#357AE1"/>
</svg>
